<svg xmlns="http://www.w3.org/2000/svg" viewBox="0 0 720 520" role="img" aria-label="Kenyan matatu bus illustration">
  <rect width="720" height="520" fill="#8bd3ff"/>
  <circle cx="124" cy="78" r="42" fill="#fff"/>
  <circle cx="178" cy="62" r="54" fill="#fff"/>
  <circle cx="236" cy="82" r="38" fill="#fff"/>
  <rect y="372" width="720" height="148" fill="#6b7280"/>
  <path d="M0 428h720" stroke="#f8fafc" stroke-width="8" stroke-dasharray="42 32"/>
  <g transform="translate(76 132)">
    <path d="M60 36h384c54 0 98 44 98 98v144H28V68c0-18 14-32 32-32z" fill="#111827"/>
    <path d="M58 74h395c27 0 49 22 49 49v80H58z" fill="#dbeafe"/>
    <path d="M58 220h444v52H58z" fill="#ef4444"/>
    <path d="M58 272h444v34H58z" fill="#f8fafc"/>
    <path d="M74 306h388v38H74z" fill="#ef4444"/>
    <rect x="94" y="94" width="68" height="86" fill="#93c5fd"/>
    <rect x="178" y="94" width="68" height="86" fill="#93c5fd"/>
    <rect x="262" y="94" width="68" height="86" fill="#93c5fd"/>
    <rect x="346" y="94" width="68" height="86" fill="#93c5fd"/>
    <text x="280" y="65" text-anchor="middle" font-family="Arial, sans-serif" font-size="44" font-weight="800" fill="#f8fafc">MATATU</text>
    <rect x="236" y="288" width="106" height="28" rx="4" fill="#fef3c7"/>
    <text x="289" y="309" text-anchor="middle" font-family="Arial, sans-serif" font-size="19" font-weight="700" fill="#111827">KBY 107U</text>
    <circle cx="142" cy="347" r="44" fill="#111827"/>
    <circle cx="142" cy="347" r="20" fill="#9ca3af"/>
    <circle cx="418" cy="347" r="44" fill="#111827"/>
    <circle cx="418" cy="347" r="20" fill="#9ca3af"/>
  </g>
</svg>
